<?xml version="1.0" encoding="UTF-8"?><svg xmlns="http://www.w3.org/2000/svg" xmlns:xlink="http://www.w3.org/1999/xlink" viewBox="0 0 84.77 140.29"><defs><style>.cls-1,.cls-2,.cls-3,.cls-4,.cls-5,.cls-6,.cls-7,.cls-8,.cls-9,.cls-10,.cls-11,.cls-12,.cls-13,.cls-14,.cls-15,.cls-16,.cls-17,.cls-18{opacity:.4;}.cls-1,.cls-2,.cls-4,.cls-5,.cls-19,.cls-6,.cls-7,.cls-8,.cls-9,.cls-20,.cls-21,.cls-22,.cls-23,.cls-10,.cls-24,.cls-25,.cls-11,.cls-12,.cls-26,.cls-27,.cls-28,.cls-13,.cls-14,.cls-29,.cls-15,.cls-16,.cls-17,.cls-18{mix-blend-mode:multiply;}.cls-30{fill:#779799;}.cls-30,.cls-2,.cls-31,.cls-3,.cls-4,.cls-32,.cls-33,.cls-5,.cls-19,.cls-34,.cls-6,.cls-7,.cls-35,.cls-8,.cls-36,.cls-9,.cls-37,.cls-38,.cls-20,.cls-21,.cls-39,.cls-40,.cls-41,.cls-22,.cls-42,.cls-43,.cls-44,.cls-23,.cls-45,.cls-46,.cls-10,.cls-47,.cls-48,.cls-49,.cls-24,.cls-50,.cls-51,.cls-25,.cls-52,.cls-53,.cls-54,.cls-55,.cls-56,.cls-11,.cls-57,.cls-58,.cls-59,.cls-12,.cls-26,.cls-60,.cls-61,.cls-62,.cls-63,.cls-27,.cls-64,.cls-65,.cls-66,.cls-28,.cls-67,.cls-13,.cls-14,.cls-29,.cls-68,.cls-15,.cls-69,.cls-70,.cls-71,.cls-16,.cls-17,.cls-72,.cls-73,.cls-18,.cls-74,.cls-75,.cls-76,.cls-77{stroke-width:0px;}.cls-2{fill:url(#linear-gradient-14);}.cls-31{fill:url(#linear-gradient-12);}.cls-3,.cls-47,.cls-25,.cls-12{fill:#5d5b66;}.cls-3,.cls-56,.cls-63,.cls-75,.cls-76{mix-blend-mode:screen;}.cls-4,.cls-73{fill:#7f7471;}.cls-32{fill:url(#linear-gradient-17);}.cls-33{fill:url(#linear-gradient);}.cls-5{fill:url(#linear-gradient-19);}.cls-19{fill:url(#linear-gradient-16);}.cls-19,.cls-21,.cls-24,.cls-56,.cls-26,.cls-63,.cls-76{opacity:.2;}.cls-34,.cls-15{fill:#513f2c;}.cls-6{fill:url(#linear-gradient-6);}.cls-7{fill:url(#linear-gradient-5);}.cls-35,.cls-40,.cls-23,.cls-57{fill:#3a1e0a;}.cls-78{isolation:isolate;}.cls-8{fill:url(#linear-gradient-8);}.cls-36{fill:#603a1d;}.cls-9{fill:url(#linear-gradient-18);}.cls-37,.cls-11{fill:#93272d;}.cls-38,.cls-29{fill:#5d5d65;}.cls-20{fill:url(#linear-gradient-21);}.cls-20,.cls-57,.cls-28{opacity:.5;}.cls-21{fill:url(#linear-gradient-15);}.cls-39{fill:#15424c;}.cls-40,.cls-22,.cls-23,.cls-27,.cls-29,.cls-75{opacity:.3;}.cls-41{fill:url(#linear-gradient-11);}.cls-22,.cls-63,.cls-75{fill:#cf3e36;}.cls-42{fill:#69373a;}.cls-43{fill:#94111f;}.cls-44{fill:url(#linear-gradient-31);}.cls-45{fill:#8b2525;}.cls-46{fill:#6d0514;}.cls-10,.cls-26,.cls-60{fill:#7c0b1c;}.cls-48{fill:#474b56;}.cls-49{fill:url(#linear-gradient-13);}.cls-24,.cls-27{fill:#e28365;}.cls-50{fill:url(#linear-gradient-25);}.cls-51{fill:url(#linear-gradient-22);}.cls-25{opacity:.6;}.cls-52{fill:#fff;}.cls-53{fill:#76767c;}.cls-54{fill:#dc7f58;}.cls-55{fill:#84523f;}.cls-56,.cls-71,.cls-17{fill:#1d596b;}.cls-58{fill:url(#linear-gradient-7);}.cls-59{fill:url(#linear-gradient-3);}.cls-61{fill:url(#linear-gradient-9);}.cls-62{fill:url(#linear-gradient-27);}.cls-64{fill:#473021;}.cls-65,.cls-28{fill:#38383d;}.cls-66{fill:url(#linear-gradient-26);}.cls-67{fill:url(#linear-gradient-30);}.cls-13{fill:url(#linear-gradient-23);}.cls-14{fill:url(#linear-gradient-20);}.cls-68{fill:url(#linear-gradient-29);}.cls-69{fill:url(#linear-gradient-28);}.cls-70{fill:url(#linear-gradient-10);}.cls-16{fill:url(#linear-gradient-24);}.cls-72{fill:url(#linear-gradient-4);}.cls-18{fill:url(#linear-gradient-2);}.cls-74{fill:#da7e58;opacity:.8;}.cls-76{fill:#a1302f;}.cls-77{fill:#4e4e54;}</style><linearGradient id="linear-gradient" x1="26.72" y1="28.43" x2="21.4" y2="64.77" gradientUnits="userSpaceOnUse"><stop offset="0" stop-color="#756c69"/><stop offset="1" stop-color="#6c6263"/></linearGradient><linearGradient id="linear-gradient-2" x1="26.28" y1="27.22" x2="25.15" y2="34.93" xlink:href="#linear-gradient"/><linearGradient id="linear-gradient-3" x1="26.56" y1="30.8" x2="24.26" y2="23.77" gradientUnits="userSpaceOnUse"><stop offset="0" stop-color="#edc39f"/><stop offset="1" stop-color="#eca587"/></linearGradient><linearGradient id="linear-gradient-4" x1="22.57" y1="139.36" x2="37.08" y2="76.94" gradientUnits="userSpaceOnUse"><stop offset="0" stop-color="#17393f"/><stop offset=".99" stop-color="#194041"/></linearGradient><linearGradient id="linear-gradient-5" x1="9.51" y1="134.46" x2="23.68" y2="73.51" xlink:href="#linear-gradient-4"/><linearGradient id="linear-gradient-6" x1="32.13" y1="132.8" x2="42.41" y2="88.53" xlink:href="#linear-gradient-4"/><linearGradient id="linear-gradient-7" x1="50.21" y1="41.85" x2="57.78" y2="41.85" xlink:href="#linear-gradient"/><linearGradient id="linear-gradient-8" x1="54.12" y1="42.24" x2="53.45" y2="46.83" xlink:href="#linear-gradient"/><linearGradient id="linear-gradient-9" x1="30.18" y1="36.16" x2="25.43" y2="68.55" xlink:href="#linear-gradient"/><linearGradient id="linear-gradient-10" x1="78.04" y1="134.28" x2="55.65" y2="93.03" gradientUnits="userSpaceOnUse"><stop offset="0" stop-color="#b7690f"/><stop offset="1" stop-color="#b25e00"/></linearGradient><linearGradient id="linear-gradient-11" x1="45.18" y1="68.61" x2="44.91" y2="65.68" xlink:href="#linear-gradient-3"/><linearGradient id="linear-gradient-12" x1="47.23" y1="67.16" x2="40.18" y2="45.53" xlink:href="#linear-gradient-3"/><linearGradient id="linear-gradient-13" x1="38.31" y1="70.08" x2="59.87" y2="102.29" gradientUnits="userSpaceOnUse"><stop offset="0" stop-color="#18293a"/><stop offset=".99" stop-color="#18324c"/></linearGradient><linearGradient id="linear-gradient-14" x1="43.2" y1="63.42" x2="49.07" y2="72.19" xlink:href="#linear-gradient-13"/><linearGradient id="linear-gradient-15" x1="41.66" y1="79.48" x2="56.79" y2="102.09" xlink:href="#linear-gradient-13"/><linearGradient id="linear-gradient-16" x1="57.09" y1="80.05" x2="66.05" y2="93.43" xlink:href="#linear-gradient-13"/><linearGradient id="linear-gradient-17" x1="83.32" y1="93.62" x2="65.69" y2="84.37" xlink:href="#linear-gradient-3"/><linearGradient id="linear-gradient-18" x1="68.24" y1="137.24" x2="47.37" y2="98.78" xlink:href="#linear-gradient-10"/><linearGradient id="linear-gradient-19" x1="52.71" y1="99.96" x2="52.6" y2="99.76" xlink:href="#linear-gradient-10"/><linearGradient id="linear-gradient-20" x1="80.01" y1="131.5" x2="62.87" y2="99.93" xlink:href="#linear-gradient-10"/><linearGradient id="linear-gradient-21" x1="67.83" y1="135.85" x2="45.16" y2="94.09" xlink:href="#linear-gradient-10"/><linearGradient id="linear-gradient-22" x1="42.76" y1="105.72" x2="35.71" y2="84.13" xlink:href="#linear-gradient-3"/><linearGradient id="linear-gradient-23" x1="17.81" y1="52.8" x2="16.76" y2="59.96" xlink:href="#linear-gradient"/><linearGradient id="linear-gradient-24" x1="20.29" y1="43.07" x2="19.16" y2="50.78" xlink:href="#linear-gradient"/><linearGradient id="linear-gradient-25" x1="49.47" y1="33.39" x2="40.06" y2="43.04" xlink:href="#linear-gradient-3"/><linearGradient id="linear-gradient-26" x1="-846.13" y1="46.21" x2="-840.14" y2="57.04" gradientTransform="translate(-806.78) rotate(-180) scale(1 -1)" gradientUnits="userSpaceOnUse"><stop offset="0" stop-color="#cf3e36"/><stop offset=".99" stop-color="#dd3336"/></linearGradient><linearGradient id="linear-gradient-27" x1="-847.14" y1="50.06" x2="-840.63" y2="50.06" gradientTransform="translate(-806.78) rotate(-180) scale(1 -1)" gradientUnits="userSpaceOnUse"><stop offset="0" stop-color="#aa3034"/><stop offset="1" stop-color="#a81514"/></linearGradient><linearGradient id="linear-gradient-28" x1="35.5" y1="58.26" x2="32.43" y2="48.85" xlink:href="#linear-gradient-3"/><linearGradient id="linear-gradient-29" x1="28.98" y1="29.13" x2="23.35" y2="11.86" xlink:href="#linear-gradient-3"/><linearGradient id="linear-gradient-30" x1="29.18" y1="17.57" x2="21.59" y2="17.12" gradientUnits="userSpaceOnUse"><stop offset="0" stop-color="#aa7e59"/><stop offset="1" stop-color="#4e371f"/></linearGradient><linearGradient id="linear-gradient-31" x1="30.35" y1="16.3" x2="34.4" y2="16.3" xlink:href="#linear-gradient-30"/></defs><g class="cls-78"><g id="Layer_2"><g id="Layer_2-2"><path class="cls-33" d="M41.99,33.34l-.93,9.25-3.13,21.43s-3.37,2.53-9.08,3.32c-.13.02-.27.04-.41.05-.58.07-1.19.12-1.82.16-7.06.33-10.38-3.26-10.45-3.46-.06-.19.28-4.59.33-5.19,0-.04,0-.07,0-.07,0,0-6.12,1.2-7.05.4-.69-.59-1.74-2.38-2.11-5.31-.13-1.03-.18-2.22-.09-3.54.33-5.06,1.73-14.04,5.12-17.37,1.09-1.07,2.29-1.96,3.49-2.68,2.54-1.53,5.07-2.34,6.56-2.65,3.86-.8,7.12-.66,12.11.87.5.15.98.32,1.42.51,4.04,1.64,6.03,4.29,6.03,4.29Z"/><path class="cls-18" d="M35.96,29.06c-1.23,1.83-3.57,4.5-7.31,5.68-5.64,1.78-9.51-.77-12.78-4.41,2.54-1.53,5.07-2.34,6.56-2.65,3.86-.8,7.12-.66,12.11.87.5.15.98.32,1.42.51Z"/><path class="cls-59" d="M28.25,29.52s-.45.45-2.54.4c-2.1-.05-2.6-.75-2.79-1.25,0-.02-.02-.05-.03-.09-.26-.72-1.17-3.81-1.27-4,0,0,1.22.6,3.41,1.15,2.2.55,2.99.5,2.99.5l.12,1.66.12,1.63Z"/><path class="cls-27" d="M28.14,27.89c-1.55-.25-3.71.24-5.25.69-.26-.72-1.17-3.81-1.27-4,0,0,1.22.6,3.41,1.15,2.2.55,2.99.5,2.99.5l.12,1.66Z"/><path class="cls-30" d="M23.39,29.35s3.26,1.22,4.76.2l-.85,5.44-3.91-5.64Z"/><path class="cls-72" d="M50.21,134.43l-.95.14-1.14.16s-8.48-10.95-11.28-16.74c-2.79-5.79-.5-13.38-.4-13.68.1-.29-8.29-27.73-8.58-28.66v-.02s-4.8,10.98-7.3,16.87c-2.5,5.89-16.44,40.06-16.44,40.06l-.78-1.99-.45-1.14s-2.5-13.34.3-19.93c2.79-6.59,6.69-8.69,6.69-8.69,0,0,.6-4.49,1.9-10.38,1.3-5.89,4.39-26.35,4.39-26.35,0,0,3.99,3.79,11.28,3.09,7.29-.7,10.38-3.44,10.38-3.44l.18,1.01,12.2,69.68Z"/><path class="cls-7" d="M38.01,64.75c-1.95,1.07-4.77,2.58-7.46,3.93-4.79,2.4-10.91-.93-10.91-.93,0,0-1.73,7.99-4.13,16.63-2.4,8.65-4.26,19.17-4.26,19.17,0,0-4.39,5.33-6.26,11.45-1.6,5.25-1.53,11.87-1.65,15.58l-.45-1.14s-2.5-13.34.3-19.93c2.79-6.59,6.69-8.69,6.69-8.69,0,0,.6-4.49,1.9-10.38,1.3-5.89,4.39-26.35,4.39-26.35,0,0,3.99,3.79,11.28,3.09,7.29-.7,10.38-3.44,10.38-3.44l.18,1.01Z"/><path class="cls-42" d="M2.9,129.44c-1.7,1.7-2.9,3.89-2.9,3.89,0,0,.4,1.8,3.19,3.79,2.79,2,3.89,2.1,3.89,2.1,0,0-2.1-4.96-2.89-6.75-.8-1.8-1.3-3.03-1.3-3.03Z"/><path class="cls-42" d="M53.11,133.33c3,.8,4.39,3.49,4.39,3.49,0,0-6.19.3-8.19-.3l-1.2-1.8s2-2.2,4.99-1.4Z"/><path class="cls-6" d="M49.26,134.57l-1.14.16s-8.48-10.95-11.28-16.74c-2.79-5.79-.5-13.38-.4-13.68.1-.29-8.29-27.73-8.58-28.66l10.67,29.09s-.27,2.53,2.4,11.58c2.3,7.83,6.2,13.97,8.33,18.24Z"/><path class="cls-58" d="M57.29,46.43s-.04.06-.06.09c-.8,1.2-4.12.67-4.66.33-.53-.33-2.23-3.17-2.36-3.77,0,0,.89-.54,1.55-1.37.33-.41.61-.9.69-1.43.26-1.6-.55-3.85-.55-3.85,0,0,2.86,1.03,4.52,2.83,1.62,1.76,1.6,5.86.85,7.17Z"/><path class="cls-8" d="M57.29,46.43s-.04.06-.06.09c-.8,1.2-4.12.67-4.66.33-.53-.33-2.23-3.17-2.36-3.77,0,0,.89-.54,1.55-1.37.32.72.76,1.59,1.24,2.22.85,1.1,2.42,2.21,4.28,2.51Z"/><g class="cls-1"><path class="cls-61" d="M28.85,68.94c-.13.02-.27.04-.41.05,1.02-8.42-1.08-28.45-1.69-33.23l.4-.05c.61,4.76,2.7,24.68,1.7,33.23Z"/></g><path class="cls-47" d="M78.78,95.69c-.36,1.35-1.03,2.92-1.61,4.2-.08.18-.14.3-.15.34-.06.16-.22.26-.38.26-.04,0-.09,0-.13-.02-.2-.07-.31-.29-.25-.5.02-.04.08-.19.18-.42.77-1.68,1.23-2.93,1.5-3.84.39-1.31.37-1.94.23-2.24-.52-1.11-1.02-1.09-3.29-.82l-.39.05c-.41.05-.95.12-1.56.21-4.15.57-8.33,1.07-10.17.54-.05.04-.1.1-.17.16-.44.43-1.18,1.27-1.12,2.16.01.22-.15.41-.37.43-.22,0-.41-.15-.43-.37-.07-1,.53-1.9,1.05-2.47.36-.4.67-.64.7-.67.11-.08.26-.11.39-.06,1.65.63,7.09-.12,10.01-.52.62-.08,1.17-.16,1.58-.21l.39-.05c2.22-.27,3.33-.41,4.12,1.27.26.57.17,1.49-.12,2.55Z"/><path class="cls-25" d="M61.71,93.36c.27.08.57.17.87.25-.44.43-1.18,1.27-1.12,2.16.01.22-.15.41-.37.43-.22,0-.41-.15-.43-.37-.07-1,.53-1.9,1.05-2.47Z"/><path class="cls-25" d="M78.78,95.69c-.36,1.35-1.03,2.92-1.61,4.2-.08.18-.14.3-.15.34-.06.16-.22.26-.38.26-.04,0-.09,0-.13-.02-.2-.07-.31-.29-.25-.5.02-.04.08-.19.18-.42.77-1.68,1.23-2.93,1.5-3.84.3,0,.58,0,.84-.03Z"/><path class="cls-60" d="M58.76,101.36c0,.2-22.25,6.58-22.25,6.58.82-.22,1.21-.81,1.35-1.72.03-.17.04-.49.03-.95,0-.12,0-.24-.01-.38,0-.06,0-.12,0-.18,0-.12-.01-.24-.02-.36-.02-.38-.05-.8-.09-1.27-.04-.47-.09-.98-.15-1.53h0s0-.02,0-.03c-.02-.16-.04-.33-.06-.5-.01-.1-.02-.21-.04-.32-.02-.2-.05-.4-.08-.59-.03-.2-.06-.41-.08-.62-.04-.28-.08-.56-.12-.85,0-.04-.01-.08-.02-.12-.05-.33-.1-.66-.16-1.01-.09-.57-.19-1.16-.3-1.76-.03-.15-.06-.31-.08-.46-.03-.17-.06-.34-.1-.51,0-.04-.02-.09-.02-.14-.07-.37-.15-.75-.23-1.13-.02-.13-.05-.26-.08-.38-.16-.77-.33-1.55-.53-2.34-.06-.23-.11-.46-.17-.69-.02-.07-.04-.14-.06-.22-.06-.23-.12-.46-.18-.69-.04-.17-.09-.34-.14-.52-.08-.3-.16-.6-.25-.9-.1-.37-.21-.75-.32-1.12-.03-.1-.06-.21-.09-.31-.08-.27-.16-.54-.25-.82-.49-1.54-1.03-3.09-1.59-4.61-.1-.27-.2-.54-.29-.8-.11-.3-.22-.59-.33-.88-.22-.58-.45-1.16-.68-1.73-.11-.28-.23-.56-.34-.84-.11-.28-.22-.56-.34-.83-.47-1.15-.93-2.24-1.37-3.25-.45-1.03-.87-1.98-1.25-2.82-.08-.19-.17-.37-.25-.55-.09-.19-.18-.38-.26-.56-.07-.16-.14-.32-.21-.46-.17-.36-.31-.67-.45-.96-.05-.11-.1-.21-.15-.31-.01-.02-.02-.05-.03-.07-.04-.09-.08-.17-.12-.25-.11-.23-.2-.42-.27-.56-.01-.02-.02-.05-.04-.07-.07-.14-.1-.21-.1-.21,0,0,.03-.37-1.1-.29.48-.32,3.67-1.56,8.73-2.39,3.3-.54,7.4-.9,12.06-.72,0,0,5.46,13.91,8.39,23.36,1.65,5.31,2.85,9.54,3.59,12.25.57,2.11.87,3.31.87,3.4Z"/><path class="cls-43" d="M37.87,106.21c-.14.91-.53,1.51-1.35,1.72-.28.08-.62.11-1.02.08-.05,0-.1,0-.16,0-.25-.02-.47-.08-.66-.16-1.09-.46-1.35-1.81-1.8-3.17-.13-.39-.78-2.78-1.69-6.17-1.25-4.66-2.99-11.23-4.55-17.1-1.96-7.39-3.61-13.66-3.61-13.66,0-.23.1-1.57,1.21-2.08.19-.09.41-.15.66-.18.02,0,.04,0,.07,0,.06,0,.11,0,.16-.01,1.13-.08,1.1.29,1.1.29,0,0,1.37,2.78,3.12,6.82,1.58,3.66,3.48,8.35,4.93,12.94,1.89,5.97,2.9,12,3.34,16.02h0c.27,2.48.33,4.2.26,4.68Z"/><path class="cls-10" d="M57.9,97.96c-6.2,2.11-14.17,4.56-17,4.33-1.02-.08-2.14-.36-3.28-.75h0c-2.32-.79-4.71-2.04-6.43-3.03-1.25-4.66-2.99-11.23-4.55-17.1.47-2.14,1.16-4.68,2.18-7.47.18-.48.35-.93.53-1.36,2.75-6.68,5.66-7.12,5.66-7.12,0,0-.82-.77-1.15-2.38,3.3-.54,7.4-.9,12.06-.72,0,0,5.46,13.91,8.39,23.36,1.65,5.31,2.85,9.54,3.59,12.25Z"/><path class="cls-34" d="M77.5,140.09s-1.09.13-4.37-1.15c-.53-.21-.99-.4-1.39-.57-2.08-.9-2.51-1.32-2.51-1.32,0,0,.48-2.23.96-3.17l.73.17.98.23c1.23,1.48,5.6,5.81,5.6,5.81Z"/><path class="cls-15" d="M71.74,138.37c-2.08-.9-2.51-1.32-2.51-1.32,0,0,.48-2.23.96-3.17l.73.17c.09,1.5.45,3.06.82,4.32Z"/><path class="cls-47" d="M55.55,139.73c-.86.06-1.78.1-2.78.1-11.08,0-13.88-4.19-13.68-5.29.11-.62,3.13-2.32,5.92-3.86,2.11-1.17,4.09-2.26,4.56-2.73h.03l5.46.2s1.9.99,4.08,2.2c2.76,1.53,5.97,3.42,6.3,4.09.55,1.09-1.23,4.66-9.9,5.29Z"/><path class="cls-48" d="M59.15,130.34c-.17,1.68-1.6,3.31-5.98,3.79-5.26.57-7.75-1.5-8.16-3.46,2.11-1.17,4.09-2.26,4.56-2.73l5.49.2s1.9.99,4.08,2.2Z"/><path class="cls-12" d="M55.55,139.73c-1.29-3.03-3.31-7.49-5.94-11.78l5.46.2s1.9.99,4.08,2.2c2.76,1.53,5.97,3.42,6.3,4.09.55,1.09-1.23,4.66-9.9,5.29Z"/><path class="cls-47" d="M55.57,130.84c-3.69,2-6.49.1-6.49.1l.46-9.57.24-4.9,4.19.5.56,4.88,1.03,8.99Z"/><path class="cls-12" d="M54.54,121.85c-1.45-.35-3.3-.64-4.99-.48l.24-4.9,4.19.5.56,4.88Z"/><path class="cls-3" d="M47.28,131.24s-6.19,3.4-6.19,3.79,2.5,2.5,4.29,1.8l3.89-4.89-2-.7Z"/><path class="cls-37" d="M78.35,90.22c-.15.66-.69,1.27-1.15,1.62-.8.6-6.19,1-10.45,1.2-4.26.2-4.86-.26-4.86-.26,0,0,.56-.73,1.13-1.58.43-.65.87-1.36,1.07-1.88,0,0,12.65-1.53,13.78-.53.5.44.6.95.48,1.44Z"/><path class="cls-11" d="M78.35,90.22c-.15.66-.69,1.27-1.15,1.62-.8.6-6.19,1-10.45,1.2-4.26.2-4.86-.26-4.86-.26,0,0,.56-.73,1.13-1.58,3.84.36,9.26.51,15.33-.97Z"/><path class="cls-43" d="M63.62,117s-1.4.54-7.65.27c-.3-.01-.62-.03-.94-.05-2.15-.14-4.65-.42-7.04-.76-.27-.04-.54-.08-.8-.12-3.72-.56-7.04-1.24-8.17-1.69-.17-.07-.29-.13-.36-.18-.13-.11-.24-.22-.33-.33-.52-.63-.49-1.44-.61-3.93-.04-.79.08-1.41.29-1.92.58-1.39,1.9-1.88,2.97-2.27,0,0,2.26.87,8.12,1.73.1.02.19.03.3.04.26.04.53.08.79.11,5.71.8,12.75,1.5,12.75,1.5l.67,7.59Z"/><polygon class="cls-60" points="77.4 103.82 77 110.81 69.35 114.34 68.33 114.82 63.62 117 62.96 109.41 77.4 103.82"/><path class="cls-46" d="M62.96,109.41l14.44-5.59-18.63-2.46-17.75,4.66s6.89,2.46,13.21,3.33c6.32.87,8.73.07,8.73.07Z"/><path class="cls-60" d="M38.2,110.21c.4.53,12.91,3.99,24.69,3.06l.13.93s-5.92.8-13.51.07c-7.59-.73-11.18-2.73-11.18-2.73l-.13-1.33Z"/><path class="cls-60" d="M35.5,108.02c-.05,0-.1,0-.16,0-.25-.02-.47-.08-.66-.16.05-1.22-.03-3.67-.93-7.04-1.33-4.96-8.32-30.84-8.32-30.84l-1.19-4.31c.19-.09.41-.15.66-.18.02,0,.04,0,.07,0,.48,2.38,3.3,11.14,5.19,18.34,2.13,8.12,4.66,17.28,5.26,20.1.36,1.69.24,3.17.09,4.1Z"/><path class="cls-26" d="M77.4,103.82l-.4,6.99-7.65,3.54-1.4-4.87.38,5.34-4.71,2.18s-1.4.54-7.65.27c-.3-.01-.62-.03-.94-.05-.5-1.52-.36-3.35-.36-3.35-5.06-.89-13.49-3.19-16.65-5.58.58-1.39,1.9-1.88,2.97-2.27,0,0,2.26.87,8.12,1.73,5.86.86,13.84,1.66,13.84,1.66l14.44-5.59Z"/><path class="cls-70" d="M80.3,111.58c-.82,6.14-2.67,21.48-2.67,21.48,0,0-.64-.4-1.2-.72-.4-.23-.76-.43-.85-.43-.2,0-2.74-5.2-4.24-12.5-1.5-7.29.79-12.46.79-12.46l-5.8-.77h-.05s5.88,28.83,5.88,28.83c0,0-.64-.3-1.24-.58-.09-.04-.18-.09-.27-.12-.22-.11-.41-.2-.55-.28-.1-.05-.17-.08-.2-.1-.21-.13-5.13-3.44-8.68-10.54-3.56-7.09-2.6-13.03-2.6-13.03,0,0-14.63-1.69-16.61-4.19-1.68-2.12-2.77-5.97-3.19-9.11-.07-.57-.13-1.12-.16-1.62,0,0,1.95.6,4.47,1.11.12.02.23.05.35.07,2.4.47,5.25.83,7.42.51,4.58-.68,8.75-2.1,8.75-2.1,0,0,4.65,1.08,9.84,2.03,5.2.95,11.35,3.85,11.35,3.85,0,0,.27,4.53-.55,10.67Z"/><path class="cls-41" d="M41.46,64.89s3.73,2.6,6.79.93l.2-1.13s-4.46.73-7.39-1.53l.4,1.73Z"/><path class="cls-31" d="M52.11,57.57c0,.65-.05,1.29-.15,1.91-.42,2.63-1.68,4.83-3.51,5.21-2.26.47-6.19.07-7.99-1.6-1.8-1.66-2.99-5.19-2.99-5.19-2.46,2.53-4.86-1.4-4.19-3.53.66-2.13,2.46-.67,2.46-.67-.27-1.63-.36-3.05-.31-4.3.04-.89.15-1.7.32-2.42.05.27.12.33.12.33.4-.8,2.73-2,4.79-.66,2.06,1.33,4.52,2.33,6.99,1,2.46-1.33,2.8-2,2.8-2,0,0,0-.04.02-.11,1.3,2.64,1.65,8.84,1.65,12.02Z"/><path class="cls-57" d="M40.66,46.65c-.93.53-1.06,1.13-1.66,3.53s-.53,4.79-.53,4.79c0,0-1.33-.33-2.26-.93l-.57-.47s-.57-4.52.1-6.52c0,0,1.06-1.2,2.86-1.2s2.06.8,2.06.8Z"/><path class="cls-35" d="M38.43,54.97c-.27,0-.73-.2-.73-.2l-.57,3.39s1.46,3.53,2.46,4.66c1,1.13,3.86,2.4,6.99,2.33,3.13-.07,3.93-1.6,4.46-2.66l-1.2,1s-.13-.9-1.66-.83c-1.53.07-2,1.76-2,1.76,0,0-1.98-.37-3.53-1.13-3.36-1.66-4.23-8.32-4.23-8.32Z"/><path class="cls-49" d="M68.15,82.99s-1.13.66-2.06,2.26c-.09.15-.17.3-.26.46-.84,1.57-1.66,3.65-2.27,4.86-.15.3-.35.7-.66,1.16-.28.43-.66.92-1.16,1.43-1.36,1.41-3.65,2.97-7.56,4-6.86,1.8-11.18-.47-11.18-.47l-1.13-5.66s.43-.11-2.89-1.8c-.38-.2-.81-.42-1.31-.65-.68-.34-1.37-.62-2.05-.85-.31-.11-.61-.23-.92-.29-4.45-.87-6.63-.99-6.63-.99.6-5.89,4.41-14.84,6.34-17.7.65-.96,1.34-1.62,2.08-2.1,1.46-.98,3.1-1.29,4.91-1.99,0,0,1.23,1.3,3.26,1.37,1.66.05,3.39-.53,3.39-.53,0,0,2.33-.86,4.26-.33.42.11.94.43,1.54.91,2.15,1.72,5.24,5.44,7.85,8.67,3.33,4.12,6.46,8.25,6.46,8.25Z"/><path class="cls-2" d="M53.84,66.06c-.99,1.06-2.33,2.32-4.06,3.58-4.06,2.95-8.88-.15-13.3-3,1.46-.98,3.1-1.29,4.91-1.99,0,0,1.23,1.3,3.26,1.37,1.66.05,3.39-.53,3.39-.53,0,0,2.33-.86,4.26-.33.42.11.94.43,1.54.91Z"/><path class="cls-21" d="M62.89,91.74c-.28.43-.66.92-1.16,1.43-1.36,1.41-3.65,2.97-7.56,4-6.86,1.8-11.18-.47-11.18-.47l-1.13-5.66s.43-.11-2.89-1.8c-.17-.27-.36-.48-.58-.62-.97-.63-1.99-.84-2.78-.88-.83-.05-1.41.08-1.41.08,0,0,.21-.09.49-.38.44-.44,1.06-1.35,1.3-3.12.4-2.89.4-4.59.4-4.59,2.1,3.79,6.39,10.58,14.57,12.58,3.97.97,7.37.65,9.83.05.8-.19,1.51-.41,2.09-.62Z"/><path class="cls-19" d="M65.82,85.71c-.84,1.57-1.66,3.65-2.27,4.86-.15.3-.35.7-.66,1.16-.28.43-.66.92-1.16,1.43-.25-.21-.51-.43-.77-.66-.05-.05-.1-.09-.16-.15-5.04-4.62-5.23-13.23-5.23-13.23,4.03,4.62,8.28,6.12,10.25,6.58Z"/><path class="cls-24" d="M34.87,54.44s1.6.8,1.6,2.66c0,0-.33.73-.93.33-.6-.4.2-1,.2-1l-.87-2Z"/><path class="cls-24" d="M51.96,59.48c.31-4.88-.35-7.98-2.91-11.76,0,0-.87,2.6-3.79,1.47-2.93-1.13-6.72-2.26-7.59-1.53-.45.38-1.37,1.25-2.24,1.75.04-.89.15-1.59.32-2.42.05.27.12.33.12.33.4-.8,2.73-2,4.79-.66,2.06,1.33,4.52,2.33,6.99,1,2.46-1.33,2.8-2,2.8-2,0,0,0-.04.02-.11,1.3,2.64,1.65,8.84,1.65,12.02,0,.65-.05,1.29-.15,1.91Z"/><path class="cls-35" d="M39.26,52.98c.47-.93,1.4-1.93,2.93-2,1.53-.07,2.13.6,2.06,1-.07.4-.67.47-1.66.4-1-.07-3.33.6-3.33.6Z"/><path class="cls-35" d="M48.07,51.79c-.49-.41-.1-1.44,1.01-1.75,1.11-.3,2.26.12,2.57.94,0,0-.39-.14-1.18.04-.83.19-2.4.76-2.4.76Z"/><path class="cls-32" d="M84.72,93.51c-.16.28-.51-.44-.76-1.07.2.86.28,2.05.1,2.26t0,0c-.26.27-.93-1.6-1.73-2.6-.8-1-1.86-1.33-1.86-1.33-.53,1.2.67,3.13-.46,2.46-1.13-.66-.73-2.6-.87-3.53-.13-.93-1.8-1-1.8-1-4.66,1.93-12.58,1.2-13.24.6,0,0,.76-1.8,1.51-3.31.35-.72.7-1.38.96-1.75.8-1.13,1.6-1.26,1.6-1.26,0,0,6.46,2,9.85,2.73,3.39.73,4.99,1.6,6.12,4.06,1.09,2.38.07,1.21,0,1.13.04.11.85,2.14.6,2.59Z"/><path class="cls-24" d="M79.99,93.24c-1.13-.66-.73-2.6-.87-3.53-.13-.93-1.8-1-1.8-1-4.66,1.93-12.58,1.2-13.24.6,0,0,.76-1.8,1.51-3.31,2.09,1.11,6.54,1.27,9.89,1.67,3.79.45,4.14,1.4,4.14,1.4,0,0-.52,2.61.37,4.17Z"/><path class="cls-24" d="M84.06,94.69s0,0,0,0c-.26.27-.93-1.6-1.73-2.6-.8-1-1.86-1.33-1.86-1.33.04-.93,1.11-.87,2.22.43.98,1.17,1.08,1.81,1.38,3.49Z"/><path class="cls-9" d="M70.93,134.44c-.48-.22-.93-.44-1.02-.5-.21-.13-5.13-3.44-8.68-10.54-3.56-7.09-2.6-13.03-2.6-13.03,0,0-14.63-1.69-16.61-4.19-1.68-2.12-2.77-5.97-3.19-9.11,2.62.31,5.31.67,5.31.67,0,3.04,2.77,5.77,2.87,6.08.1.3,10.67,3.34,14.97,4.36,0,0-1.33,5.07,1.03,12.46,1.67,5.24,5.71,10.93,7.92,13.81Z"/><path class="cls-5" d="M52.47,99.79s.15.04.35.1c-.21-.05-.33-.09-.35-.1Z"/><path class="cls-14" d="M76.44,132.34c-.4-.23-.76-.43-.85-.43-.2,0-2.74-5.2-4.24-12.5-1.5-7.29.79-12.46.79-12.46l-5.8-.77c-.55-.66-1.33-1.45-2.2-1.96-1.57-.91-9.16-3.7-10.92-4.26,1.99.49,11.54,2.63,11.54,2.63l10.36,2.03s-.62,5.88-.82,12.26c-.18,5.76,1.14,11.12,2.15,15.46Z"/><path class="cls-34" d="M81.12,140.29s-1.1,0-3.08-2.09c-.58-.61-1.08-1.21-1.49-1.74-1-1.29-1.52-2.24-1.52-2.24,0,0,.35-1.82.55-2.3l1.36.51.62.23,3.56,7.63Z"/><path class="cls-15" d="M76.95,132.43c-.22,1.19-.42,2.73-.39,4.02-1-1.29-1.52-2.24-1.52-2.24,0,0,.35-1.82.55-2.3l1.36.51Z"/><path class="cls-20" d="M70.66,134.32c-.22-.11-.41-.2-.55-.28-2.28-3.35-6.9-10.35-8.27-13.66-1.69-4.09-.98-10.2-.85-11.19-1.48-.36-13.34-3.28-15.49-4.44-2.05-1.11-2.85-2.36-3.01-2.64-.35-.12-1.92-.85-3.32-4.63-.03-.08.01-.17.09-.19.08-.03.17.01.2.09,1.28,3.46,2.71,4.27,3.08,4.43,1.39-1.82.83-4.54.59-5.26.12.02.23.05.35.07.3,1.04.63,3.65-.7,5.38.19.32.99,1.48,2.86,2.49,2.21,1.19,15.42,4.41,15.55,4.45.08.02.13.09.12.17,0,.06-1,6.8.81,11.16,1.42,3.44,6.41,10.91,8.54,14.05Z"/><path class="cls-47" d="M50.71,104.6c-.07.93-.26,2.08-.51,3.3-.69,3.37-1.82,7.27-2.21,8.55-.27-.04-.54-.08-.8-.12.59-1.95,1.59-5.54,2.21-8.55.24-1.15.42-2.21.5-3.06.06-.67.06-1.21-.02-1.56l-.06-.25c-.52-2.3-.72-3.16-7.76-3.53-4.86-.26-9.39-1.39-12.09-2.07-.74-.18-1.44-.36-1.86-.44.19.67.64,2.12,1.24,4,1.25,3.94,3.14,9.79,4.62,14.31l4.37-1.05s.07.08.3.29c.24.21.42.14.38.22-.05.1-.14.18-.26.2l-4.96,1.2c-.2.05-.41-.06-.47-.26-1.23-3.77-3.55-10.89-4.95-15.35-.69-2.21-1.16-3.77-1.16-3.94,0-.14.06-.27.17-.35.28-.22.69-.13,2.78.4,2.68.67,7.16,1.8,11.94,2.05,7.27.38,7.86,1.36,8.5,4.16l.06.25c.09.38.1.94.05,1.6Z"/><path class="cls-25" d="M39.02,114.65c-.05.1-.14.18-.26.2l-4.96,1.2c-.2.05-.41-.06-.47-.26-1.23-3.77-3.55-10.89-4.95-15.35.3.14.62.29.97.44,1.25,3.94,3.14,9.79,4.62,14.31l4.37-1.05s.07.08.3.29c.24.21.42.14.38.22Z"/><path class="cls-25" d="M50.71,104.6c-.07.93-.26,2.08-.51,3.3-.69,3.37-1.82,7.27-2.21,8.55-.27-.04-.54-.08-.8-.12.59-1.95,1.59-5.54,2.21-8.55.24-1.15.42-2.21.5-3.06.28-.04.54-.08.81-.13Z"/><path class="cls-37" d="M46.51,98.42c0,.19-.03.38-.06.54-.2,1.13-2.26.8-7.85-.07-5.59-.87-8.11-1.86-8.65-2.99-.27-.56-.38-1.06-.35-1.51.06-.9.73-1.6,2.01-2.08,0,0,4.86,1.86,11.78,2.93,2.73.42,3.18,2.02,3.12,3.19Z"/><path class="cls-11" d="M46.51,98.42c0,.19-.03.38-.06.54-.2,1.13-2.26.8-7.85-.07-5.59-.87-8.11-1.86-8.65-2.99-.27-.56-.38-1.06-.35-1.51,2.56,1.43,7.88,3.25,16.92,4.03Z"/><path class="cls-51" d="M50.85,100.56c-.6.93-1.93-1.6-1.86-1.8-.08.13-1.1,2.23-1.71,2.83-.11.11-.21.17-.28.16-.36-.04-.06-1.03.15-1.62.03-.08.05-.12.08-.16,0-.02.02.14.02.12-.31.58-1.36,1.86-1.85,2.72h0s-.02-.17-.04-.18c-.03-.01-.06-.13-.08-.14-.4-.23.08-1.43.4-2.1,0,0,0-.05,0-.05,0-.02.02-.04.02-.06h0s.02-.07.04-.09c-.05.08-.1.16-.16.25,0,.02-.02.03-.03.04-.04.05-.07.05-.1.1-.22.3-.48.51-.71.51h-.02s-.04.03-.08,0c-.32-.2-.13-.76.02-1.17.04-.11.08-.19.1-.27.02-.04-.38-.07-.37-.1,0-.01-.4-.02-.4-.03h0s.34.02.33.04c0,0,.18,0,.18,0-.06.1-.03.18-.08.25,0,0-.38.01-.39.02-.29.36-.9.3-.9,0h0c0-.19.39-.45.44-.77.03-.18.28-.37.35-.58.23-.77,1.3-2.26.97-2.66-.33-.4-1.88-.26-7.14-1.33-5.26-1.07-9.43-3.66-9.43-3.66-.86-.86-.85-2.93-.25-4.39,0,0,.26.02.69.04,1.59.12,5.59.44,7.37,1.02,2.26.73,6.06,3.06,8.46,4.26,2.4,1.2,3.39,1.93,4.59,4.46,1.2,2.53,1.67,4.33,1.67,4.33Z"/><path class="cls-24" d="M45.92,95.97s-1.44,2.13-1.96,3.87c-.06-.28-.01-.77.16-1.34.23-.77,1.2-2.26.87-2.66-.33-.4-1.93-.26-7.19-1.33-5.26-1.07-9.45-3.66-9.45-3.66-.86-.86-.86-2.93-.26-4.39,0,0,.26.02.68.04.46,1.22,1.68,2.43,3.98,3.82,2.86,1.73,10.85,4.06,12.51,4.86l.66.8Z"/><path class="cls-24" d="M44.67,99.58c-.06.1-.12.18-.17.25.05-.08.11-.17.17-.25Z"/><path class="cls-24" d="M46.13,97.5c-.43.86-1.17,2.65-1.6,3.7-.04,0-.35-.02-.39-.04-.48-.3-.16-1.39-.16-1.62h0c1.71-1.05,2.14-2.04,2.14-2.04Z"/><path class="cls-24" d="M46.88,98.75c-.32.48-1.11,2.45-1.54,3.73-.03-.01-.06-.04-.08-.06-.4-.23.08-1.39.4-2.06,0,0,0-.03,0-.03,0-.02.02-.03.02-.05h0c.59-.83,1.11-1.45,1.18-1.53Z"/><path class="cls-24" d="M47.14,100.14c.03-.06.05-.11.08-.16,0-.02.02-.03.02-.04.52-1.07.9-1.57.95-1.63l-1.04,1.84Z"/><path class="cls-24" d="M48.18,98.3s0,0,0,0c-.14.44-.6,2.3-.91,3.29l.91-3.3Z"/><path class="cls-35" d="M50.51,44.45c.02.52-.03.92-.05,1.1-.01.07-.02.11-.02.11,0,0-.34.66-2.8,2-2.46,1.33-4.93.33-6.99-1-2.06-1.33-4.39-.14-4.79.66,0,0-.07-.06-.12-.33-.06-.37-.08-1.13.18-2.66.33-1.9,2.43-4.68,4.74-5.72.19-.08.38-.16.57-.22-.47.61,2.7.03,4.82-.42.5-.1.93-.2,1.25-.27.34-.08.54-.12.54-.12l.87,1.05c.62,1.87.36,1.87.7,2,.33.14.28-.55.28-.55.34.4.54.93.66,1.49.24,1.11.13,2.34.15,2.88Z"/><path class="cls-73" d="M25.85,32.98l-6.29,1.67.25-2.02.75-6.16,1.43-.83s.72,2.64,1.2,3.43c.36.59,1.47,2.2,2.13,3.16.32.45.53.76.53.76Z"/><path class="cls-73" d="M32.84,32.75l-5.16.07s.1-.52.19-1.28c.1-.83.2-1.94.18-2.98-.03-1.63.03-2.03.03-2.03l1.66.13,1.69,3.32,1.41,2.77Z"/><path class="cls-4" d="M23.19,29.05c.36.59,1.47,2.2,2.13,3.16-1.96.41-3.89.55-5.51.4l.75-6.16,1.43-.83s.72,2.64,1.2,3.43Z"/><path class="cls-4" d="M27.87,31.53c.1-.83.2-1.94.18-2.98-.03-1.63.03-2.03.03-2.03l1.66.13,1.69,3.32c-1.1.62-2.32,1.15-3.56,1.56Z"/><path class="cls-13" d="M27.7,53.97v1.6s-6.88,2.02-11.21,3.33c0-.04,0-.07,0-.07,0,0-6.12,1.2-7.05.4-.69-.59-1.74-2.38-2.11-5.31,2.03,2.45,3.72,2.78,6.83,2.78,3.4,0,13.53-2.74,13.53-2.74Z"/><path class="cls-16" d="M15.97,42.13c.5,2.8-.7,8.58-.7,8.58l8.29.4-6.79-1.5s.6-1,.4-3.99c-.2-2.99-1.2-3.49-1.2-3.49Z"/><path class="cls-52" d="M44.94,54.87s-.7.38-1.68.49c-.68.08-1.5.02-2.32-.39,0,0,.49-1.9,2.14-2,.32-.02.59.04.81.15.91.45,1.04,1.74,1.04,1.74Z"/><path class="cls-52" d="M51.82,54.02s-.18.08-.47.16c-.26.08-.6.16-.98.2-.65.07-1.41.04-2.09-.31,0,0,.35-1.67,1.72-1.74.05,0,.1,0,.15,0,1.03.03,1.43.82,1.58,1.31.07.22.08.38.08.38Z"/><path class="cls-54" d="M47.48,52.24s1.26,3.63,2.11,4.73c0,0-.9,1.6-2.8.9,0,0,1.6-.2,2.15-.9,0,0-1.47-2.98-1.47-4.73Z"/><path class="cls-52" d="M44.64,59.81s3.34-.05,5.14-.9c0,0,.45,2.3-1.95,2.85-2.4.55-3.19-1.95-3.19-1.95Z"/><path class="cls-36" d="M44.94,54.87s-.7.38-1.68.49c-.34-.21-.57-.59-.57-1.02,0-.67.54-1.21,1.21-1.21.91.45,1.04,1.74,1.04,1.74Z"/><path class="cls-36" d="M51.74,53.64c-.07.22-.21.41-.38.54-.26.08-.6.16-.98.2-.5-.12-.87-.57-.87-1.11,0-.39.19-.74.5-.94.05,0,.1,0,.15,0,1.03.03,1.43.82,1.58,1.31Z"/><path class="cls-55" d="M40.95,54.97c.02-.13.28-1.43,1.98-1.56,1.7-.13,2.01,1.46,2.01,1.46,0,0,.08-1.8-1.55-2.1-2.3-.42-2.44,2.2-2.44,2.2Z"/><path class="cls-55" d="M48.28,54.07c.07-.1.23-1.63,1.85-1.65,1.61-.02,1.7,1.6,1.7,1.6,0,0,.05-2.35-1.61-2.35-1.94,0-1.93,2.4-1.93,2.4Z"/><path class="cls-23" d="M50.51,44.45c.02.52-.03.92-.05,1.1-.01.07-.02.11-.02.11,0,0-.34.66-2.8,2-2.46,1.33-4.93.33-6.99-1-2.06-1.33-4.39-.14-4.79.66,0,0-.07-.06-.12-.33-.06-.37-.08-1.13.18-2.66.33-1.9,2.43-4.68,4.74-5.72.73.4,1.4.87,2.01.93.93.08,2.35-.81,3.37-1.56.73-.53,1.25-1,1.25-1,0,0,.01.28,0,.73-.02.93-.13,2.56-.6,3.79-.7,1.83-2.56,3.46-2.56,3.46,1.96-.17,3.83-2.3,3.83-2.3-.33,1.93-2.5,3.73-2.5,3.73,2.02-.03,3.83-2.32,4.88-4.82.24,1.11.13,2.34.15,2.88Z"/><path class="cls-50" d="M52.29,40.98c-.05.09-.11.18-.17.27-.19.28-.41.54-.63.76-.06.06-.11.11-.16.16-.06.05-.11.1-.16.15-.11.1-.21.19-.31.26-.1.08-.19.14-.27.2-.03.02-.06.04-.09.06h0c-.02-.81-.19-1.89-.8-2.78,0,0,0,.73-.33.6-.33-.14-.2-1.8-1.2-2.6l-.47-.4-.14.49s-.39.87-1.03,1.52c-1.21,1.25-3.25,2.05-3.53,1.72-.02-.02-.03-.05-.04-.08-.06-.28.62-.69.87-.84-.48.25-2.64,1.34-2.98.97-.23-.26.44-.77.97-1.13-1.1.6-2.5,1.05-2.74.62-.12-.22,1.75-1.71,1.98-1.89-1.98,1.15-3.04,1.33-2.02.31.57-.56,1.48-1.66,2.18-2.56.57-.73,1.01-1.33,1.03-1.43.04-.23-.61-.28-1.81-.28s-2.37-.46-2.28-.74c.1-.28.19-.28,1.95-.88,1.76-.6,3.58-.97,5.3-.7,0,0,.65-.14,2.56.84,1.91.97,4.03,2.96,4.03,2.96,0,0,1.02,3.13.28,4.43Z"/><path class="cls-24" d="M52.15,41.25c-.19.28-.41.54-.63.76-.06.06-.11.11-.16.16-.06.05-.11.1-.16.15-.11.1-.21.18-.31.26-.09.08-.19.14-.27.2-.03.02-.06.04-.09.06-.02-.81-.19-1.89-.8-2.78,0,0,0,.73-.33.6-.33-.14-.2-1.8-1.2-2.6l-.47-.4s-.02.3-.1.57l-.05-.09s.02.1-.05.25c0,.02-.02.04-.03.07-.04.09-.11.21-.21.35-.05.07-.11.15-.18.24-.14.18-.32.38-.55.62-1.21,1.25-3.25,2.05-3.53,1.72-.02-.02-.03-.05-.04-.08,1.66-.91,3.45-2.09,4.34-4.12l.4-1.07s2.65,3.48,4.41,5.11Z"/><polygon class="cls-38" points="41.48 45.85 41.58 45.48 41.38 45.78 41.48 45.85"/><polygon class="cls-38" points="41.27 45.71 41.39 45.34 41.15 45.63 41.27 45.71"/><polygon class="cls-38" points="41.02 45.54 41.14 45.19 40.87 45.45 41.02 45.54"/><polygon class="cls-38" points="40.74 45.37 40.87 44.99 40.6 45.26 40.74 45.37"/><polygon class="cls-38" points="40.46 45.17 40.59 44.82 40.31 45.08 40.46 45.17"/><polygon class="cls-38" points="40.17 45 40.3 44.65 40.05 44.9 40.17 45"/><polygon class="cls-38" points="39.92 44.83 40.06 44.49 39.78 44.72 39.92 44.83"/><polygon class="cls-38" points="39.68 44.65 39.79 44.32 39.55 44.58 39.68 44.65"/><polygon class="cls-38" points="39.47 44.52 39.59 44.22 39.4 44.41 39.37 44.48 39.47 44.52"/><path class="cls-38" d="M38.06,45.86s.39-.15.89-.1c.25.02.53.1.81.27.98.58.98,1.74.98,1.74.04-.05.65-.54.65-.54l.45-1.5-.11-.13-.18.31-2.17-1.43.09-.36-.13-.05-.4,1.05-.89.76Z"/><polygon class="cls-65" points="41.43 46.06 39.46 44.77 39.26 44.88 41.21 46.17 41.43 46.06"/><polygon class="cls-53" points="41.45 46.06 41.21 46.17 40.76 47.52 41 47.34 41.45 46.06"/><path class="cls-77" d="M38.06,45.86s.39-.15.89-.1l.49-.77-.18-.11-.31.22-.89.76Z"/><path class="cls-66" d="M33,54.98c.15.36.52.63.77.74.08.03.14.05.19.05.18,0,.45-.05.85-.65.09-.13.27-.4.49-.74.78-1.19,2.12-3.25,2.21-3.37.11-.14,1.14-.4,1.47-.51.23-.08.81-.9,1.25-1.69.2-.35.37-.7.47-.97.07-.21.08-.41.05-.59-.05-.28-.2-.54-.38-.75-.22-.26-.48-.46-.65-.54-.32-.15-.65-.23-.97-.23-.42,0-.82.13-1.16.39-.11.08-.22.18-.31.29-.62.71-2.19,3.22-2.21,3.39-.02.16.02.63.02.63,0,0-.74,1.21-1.17,2-.02.03-.03.06-.05.08-.42.78-1.07,1.99-.87,2.46Z"/><path class="cls-38" d="M33.77,55.73c.42.25.82.38.98.22.15-.15,2.05-2.81,2.89-4,.25-.35.4-.57.4-.57,0,0,.81-.05,1.16-.27.14-.09.43-.56.72-1.08.43-.78.88-1.69.88-1.69,0,0,.11-.53-.05-1.09h0c.03.19.03.39-.05.6-.17.47-.56,1.16-.93,1.72h0c-.33.5-.64.89-.79.94-.33.11-1.36.36-1.47.51-.03.04-.2.29-.44.66-.69,1.05-1.96,3-2.26,3.45-.4.6-.67.65-.85.65-.04,0-.11-.02-.19-.05Z"/><polygon class="cls-77" points="36.16 53.06 36.44 53.32 35.82 54.19 35.53 54.02 36.16 53.06"/><path class="cls-62" d="M34.23,54.38s.03,0,.05,0c.17,0,.5-.13.89-.76.27-.44,1.77-2.6,2.94-4.28.69-.98,1.26-1.8,1.42-2.02.38-.51.68-.76.83-.82-.22-.26-.48-.46-.65-.54-.32-.15-.65-.23-.97-.23-.27.31-.74.87-1.4,1.8-1.12,1.58-3.08,5.14-3.39,5.94-.31.8.13.89.27.91Z"/><path class="cls-45" d="M39.46,46.08c.31.25.11.63-.24.45-.34-.18-.04-.67.24-.45Z"/><path class="cls-63" d="M37.58,46.13c.16.66.45,1.78.65,2.05.29.38,1.1.67,1.1.67,0,0,.42.07.89-.03.2-.35.37-.7.47-.97.07-.21.08-.41.05-.59-.05-.28-.2-.54-.38-.75-.22-.26-.48-.46-.65-.54-.32-.15-.65-.23-.97-.23-.42,0-.82.13-1.16.39Z"/><path class="cls-75" d="M40.07,47.45c-.33.63-1.21,2.39-1.38,2.5-.16.11-1.25.58-1.25.58,0,0-2.01,3.06-2.48,3.71-.47.65-.76.92-.76.92,0,0,.63-.49,1.05-1,.42-.51,2.08-3.08,2.08-3.08l.25-.43s1.01-.2,1.32-.45c.31-.25.98-1.45,1.18-1.83.2-.38-.02-.92-.02-.92Z"/><path class="cls-76" d="M34.28,54.39c.17,0,.5-.13.89-.76.27-.44,1.77-2.6,2.94-4.28-.82.58-1.66,1.36-1.71,1.41-.06.05-.71.92-1.47,2.34-.29.54-.5.97-.65,1.3Z"/><path class="cls-22" d="M33,54.98c.15.36.52.63.77.74.08.03.14.05.19.05.18,0,.45-.05.85-.65.09-.13.27-.4.49-.74-.3-.13-.63-.31-.85-.53-.37-.37-.49-.93-.54-1.42-.02.03-.03.06-.05.08-.42.78-1.07,1.99-.87,2.46Z"/><path class="cls-29" d="M37.06,51.68c.18.08.4.18.58.26.25-.35.4-.57.4-.57,0,0,.81-.05,1.16-.27.14-.09.43-.56.72-1.08-.05-.15-.11-.3-.16-.45-.33.49-.64.89-.79.94-.33.11-1.36.36-1.47.51-.03.04-.2.29-.44.66Z"/><path class="cls-65" d="M40.8,47.67l.02.18.02.23c.53.01.7-.58.7-.58,0,0,0-.01-.02-.03-.03-.07-.11-.22-.13-.25l-.59.45Z"/><path class="cls-38" d="M40.82,47.84l.02.23c.53.01.7-.58.7-.58,0,0,0-.01-.02-.03-.28.08-.53.22-.71.37Z"/><path class="cls-65" d="M40.03,50.12l.45.25.14-.2s0,0,0-.01c.19-.36.31-1.03.31-1.03,0,0,.39-.86.39-.94s-.24-.57-.24-.57l-.19.11.21.51s-.3.85-.36.86c-.04,0-.36.49-.55.79-.09.13-.15.23-.15.23Z"/><path class="cls-28" d="M40.03,50.12l.45.25.14-.2s0,0,0-.01c-.16-.08-.34-.18-.45-.27-.09.13-.15.23-.15.23Z"/><path class="cls-69" d="M39.4,51.58s.01.02.03.05c.11.18.5.87.33,1.35-.08.22-.26.46-.45.65-.14.15-.28.26-.38.32-.09.05-.15.08-.15.08,0,0,.01,0,.03.02.11.1.43.46-.08,1.06-.11.13-.22.22-.33.29h0c-.38.26-.73.24-.86.22.17.07.59.25.49.54-.03.09-.11.19-.26.3-.93.69-2.13.8-4.02.25-1.9-.55-3.64-2.1-3.64-2.1l-2.4.95v-4.44s1.09.1,1.55-.1c1.23-.55,3.19-2.24,4.54-2.7,1.35-.45,2.05.15,2.05.15,0,0-.78,1.1-.78,1.4s1.83,1.2,2.93.85c1.1-.35,1.85-.42,1.85-.42.02.15.05.37.02.6-.03.27-.14.54-.45.67Z"/><path class="cls-24" d="M38.03,56.17c-.03.09-.11.19-.26.3-.93.69-2.13.8-4.02.25-1.9-.55-3.64-2.1-3.64-2.1l-2.4.95v-1.6l3.24-.46s1.8,1.47,3.59,2.13c1.4.52,2.63.68,3.49.53Z"/><path class="cls-24" d="M39.4,51.58s.01.02.03.05c-.55.08-1.52-.07-1.52-.07.91.04,1.54-.33,1.94-.65-.03.27-.14.54-.45.67Z"/><path class="cls-24" d="M38.93,53.94c-.09.05-.15.08-.15.08,0,0,.01,0,.03.02-.96.02-1.98-.59-1.98-.59.91.25,1.9.27,2.48.16-.14.15-.28.26-.38.32Z"/><path class="cls-24" d="M38.4,55.4c-.38.25-.73.24-.86.22t0,0c-.89-.1-1.35-.44-1.4-.48.74.31,1.68.34,2.27.26Z"/><path class="cls-35" d="M43.69,40.57c.47-.22,1.52-.85,1.1-1.9l-.37-.82s-.5,2.1-1.6,3.19l.87-.47Z"/><path class="cls-35" d="M41.09,40.72c.2-.13.55-.27.62-.33.08-.05,1.2-.77,1.2-1.5s-.5-1.12-.5-1.12c0,0,.2.8-.25,1.57-.45.77-1.32,1.5-1.32,1.5l.25-.12Z"/><path class="cls-39" d="M16.63,13.62s-2.23-.1-3.64-.61c-.66-.23-1.14-.56-1.14-1,0-.86,1.56-1.91,2.78-2.53.77-.39,1.41-.61,1.42-.49.15,1.99.59,4.64.59,4.64Z"/><path class="cls-17" d="M16.63,13.62s-2.23-.1-3.64-.61c.36-1,.89-2.29,1.64-3.53.77-.39,1.41-.61,1.42-.49.15,1.99.59,4.64.59,4.64Z"/><path class="cls-68" d="M34.29,22.76c-.11.61-.32,1.19-.61,1.71-.35.64-.82,1.19-1.37,1.62-.95.75-2.17,1.13-3.48.98-2.7-.33-6.07-1.21-8.22-2.7-2.15-1.49-2.43-4.14-2.43-4.14,0,0-.68.21-1.5,0-.63-.16-1.34-.58-1.87-1.54-.68-1.25-.78-2.26-.55-2.95.17-.53.53-.87.94-.97.76-.18,1.56.52,1.83.79.04.04.08.08.09.09-.02-.1-.22-.88-.22-1.81,0,0,.81.17,2.09.35.23.03.47.07.73.1,1.87.23,4.43.44,6.89.27,4.69-.33,7.62-2.65,7.62-2.65,0,0,.55,8.22.05,10.87Z"/><path class="cls-24" d="M32.31,26.09c-.95.75-2.17,1.13-3.48.98-2.7-.33-6.07-1.21-8.22-2.7-2.15-1.49-2.43-4.14-2.43-4.14,0,0-.68.21-1.5,0-.07-1.59-.55-3.58-2.42-4.49.17-.53.53-.87.94-.97.94-.22,1.93.88,1.93.88,0,0-.22-.83-.22-1.82,0,0,1.13.24,2.82.45.06,4.32.65,7.64,2.87,9.65,1.58,1.43,6.15,2.76,9.72,2.17Z"/><path class="cls-24" d="M15.16,16.12s1.77,1.03,1.69,2.8c0,0-.96-.07-1.25-.44-.29-.37.37-.81.37-.81l-.81-1.55Z"/><path class="cls-71" d="M34.24,11.89s-2.53,1.86-6.3,2.72c-.16.04-.32.08-.49.11-2.36.47-5.69.04-8.06-.39-1.7-.31-2.9-.64-2.9-.64,0,0-.81-4.71-.52-6.55.24-1.51,2.65-4.05,5.54-5.36.64-.29,1.3-.53,1.96-.67,3.68-.81,6.55.15,8.24,2.28.25.31.48.68.69,1.07,1.23,2.27,1.84,5.64,1.83,7.43Z"/><path class="cls-40" d="M33.68,24.47c-.35.64-.82,1.19-1.37,1.62-.95.75-2.17,1.13-3.48.98-2.7-.33-6.07-1.21-8.22-2.7-2.15-1.49-2.43-4.14-2.43-4.14,0,0-1.07-5.11-1.27-6.4,0,0,.81.17,2.09.35,0,.02,0,.05,0,.07.3,2.53,1.1,6.79,2.21,8.28,1.1,1.49,5.18,3.14,7.95,3.09,1.77-.04,3.4-.48,4.52-1.14Z"/><path class="cls-64" d="M19.39,14.36l-1.82,2.92s-.22-1.2-.45-1.64l-.64-1.94s.15.06,1.36.28c1.21.22,1.55.39,1.55.39Z"/><path class="cls-39" d="M22.81,1.55s-1.18-.88.22-1.4c1.4-.52,2.35.37,2.06,1.03,0,0-1.62.59-2.28.37Z"/><path class="cls-17" d="M19.38,14.33c-1.7-.31-2.9-.64-2.9-.64,0,0-.81-4.71-.52-6.55.24-1.51,2.65-4.05,5.54-5.36-1.66,2.9-3.01,7.9-2.12,12.55Z"/><path class="cls-56" d="M34.24,13.66s-2.53,1.86-6.3,2.72c1.56-2.4,3.34-5.84,4.48-10.15,1.23,2.27,1.84,5.64,1.83,7.43Z"/><path class="cls-74" d="M29.25,15.75c.59,1.03,1.77,4.36,2.1,5.2,0,0-1.44,1.64-3.31.19,0,0,1.4.46,2.58-.34l-1.36-5.04Z"/><path class="cls-64" d="M21.63,14.61c-.52.64.29,1.25,1.32.55,1.03-.7,2.76-1.14,3.64-.4,0,0-.29-.74-1.91-1.21-1.82-.54-2.72.66-3.05,1.07Z"/><path class="cls-64" d="M30.17,14.47c-.19.73,1.38-.27,2.47-.55,1.05-.28,1.59-.62.74-1.18-1.05-.68-2.94.74-3.2,1.73Z"/><path class="cls-52" d="M26.97,18.84s-.03.01-.08.04c-.31.14-1.44.6-2.74.29-.62-.14-1.27-.46-1.89-1.06-.2-.2.81-1.55,2.32-1.55.46,0,.87.22,1.21.52.6.53,1,1.33,1.13,1.63.04.08.05.13.05.13Z"/><path class="cls-64" d="M26.92,18.72c0,.06-.02.11-.03.17-.31.14-1.44.6-2.74.29-.1-.2-.16-.42-.16-.66,0-.81.66-1.47,1.47-1.47.11,0,.22.01.32.04.6.53,1,1.33,1.13,1.63Z"/><path class="cls-67" d="M26.97,18.85s-.74-1.91-2.39-2.1c-1.66-.18-2.39,1.31-2.39,1.31,0,0,.11-2.08,2.32-2.15,2.21-.07,2.47,2.94,2.47,2.94Z"/><path class="cls-52" d="M34.36,17s-.67,1.37-2.69,1.04c-.39-.06-.83-.18-1.32-.39,0,0,.27-1.75,1.83-2.18.99-.27,1.6.42,1.91.95h0c.18.31.26.57.26.57Z"/><path class="cls-64" d="M34.36,17s-.67,1.37-2.69,1.04c-.11-.2-.17-.43-.17-.68,0-.81.66-1.47,1.47-1.47.45,0,.86.21,1.13.53h0c.18.31.26.57.26.57Z"/><path class="cls-44" d="M30.35,17.65s.61-1.79,1.99-1.95c1.37-.15,2.06,1.28,2.06,1.28,0,0-.46-2.21-2.1-2.02-1.64.19-1.95,2.69-1.95,2.69Z"/><path class="cls-52" d="M26.95,22.55s3.27.03,5.39-.49c0,0-.1,2.47-2.42,2.73-2.84.32-2.97-2.24-2.97-2.24Z"/></g></g></g></svg>